# xmcd
#
# Track frame offsets: 
#        150
#        16934
#        35699
#        52001
#        67235
#        89715
#        110198
#        123148
#        149591
#        168350
#        193460
#        219760
#        237234
#        250906
#        270238
#        284203
#        307333
#        327037
#        340737
#
# Disc length: 4774 seconds
#
# Revision: 0
# Processed by: cddbd v1.5.2PL0 Copyright (c) Steve Scherf et al.
# Submitted via: ExactAudioCopy v1.3
#
DISCID=3212a413
DTITLE=Various Artist - Blues - Golden Age '60s -'70s  vol.11  CD1
DYEAR=2018
DGENRE=Rock
TTITLE0=Humble Pie - 1972 - Road Runner
TTITLE1=Rare Earth - 1975 - It Makes You Happy
TTITLE2=Santana - 1970 - Black Magic Woman
TTITLE3=Stan Webb's Chicken Shack - 1978 - Let Me Love
TTITLE4=Lynyrd Skynyrd (1973) - Things Goin' On
TTITLE5=The Rolling Stones - 1973 - Angie
TTITLE6=Freddie King - 1974 - Sugar Sweet
TTITLE7=Cuby and Blizzards - 1968 - The Sky Is Crying
TTITLE8=ZZ Top (1971) - Just Got Back From Baby's
TTITLE9=Maggie Bell - 1974 - Souvenirs
TTITLE10=Peter Green - 1979 - Got To See Her Tonight
TTITLE11=Shocking Blue - 1970 - Alaska County
TTITLE12=The Beatles - 1969 - Something
TTITLE13=Ten Years After - 1974 - Positive Vibrations
TTITLE14=Slade (1973) - Look At Last Nite
TTITLE15=Livin' Blues - 1967 - One Night Boy
TTITLE16=Shocking Blue - 1968 - That's Allright
TTITLE17=Uriah Heep - 1972 - The Wizard
TTITLE18=Nazareth (1976) - Good Love
EXTD=
EXTT0=
EXTT1=
EXTT2=
EXTT3=
EXTT4=
EXTT5=
EXTT6=
EXTT7=
EXTT8=
EXTT9=
EXTT10=
EXTT11=
EXTT12=
EXTT13=
EXTT14=
EXTT15=
EXTT16=
EXTT17=
EXTT18=
PLAYORDER=
